<svg width="512" height="512" viewBox="0 0 512 512" style="color:currentColor" xmlns="http://www.w3.org/2000/svg" class="h-full w-full"><rect width="512" height="512" x="0" y="0" rx="30" fill="transparent" stroke="transparent" stroke-width="0" stroke-opacity="100%" paint-order="stroke"></rect><svg width="256px" height="256px" viewBox="0 0 24 24" fill="currentColor" x="128" y="128" role="img" style="display:inline-block;vertical-align:middle" xmlns="http://www.w3.org/2000/svg"><g fill="currentColor"><path fill="currentColor" d="M5.566 4.657A4.505 4.505 0 0 1 6.75 4.5h10.5c.41 0 .806.055 1.183.157A3 3 0 0 0 15.75 3h-7.5a3 3 0 0 0-2.684 1.657ZM2.25 12a3 3 0 0 1 3-3h13.5a3 3 0 0 1 3 3v6a3 3 0 0 1-3 3H5.25a3 3 0 0 1-3-3v-6Zm3-4.5c-.41 0-.806.055-1.184.157A3 3 0 0 1 6.75 6h10.5a3 3 0 0 1 2.683 1.657A4.505 4.505 0 0 0 18.75 7.5H5.25Z"/></g></svg></svg>